<?xml version="1.0" ?><!DOCTYPE svg  PUBLIC '-//W3C//DTD SVG 1.1//EN'  'http://www.w3.org/Graphics/SVG/1.1/DTD/svg11.dtd'><svg enable-background="new 0 0 512 512" height="512px" id="Layer_1" version="1.1" viewBox="0 0 512 512" width="512px" xml:space="preserve" xmlns="http://www.w3.org/2000/svg" xmlns:xlink="http://www.w3.org/1999/xlink"><path clip-rule="evenodd" d="M110.666,130.221h290.869c15.32,0,27.82,12.5,27.82,27.818v195.93   c0,15.324-12.5,27.813-27.82,27.813H110.666c-15.523,0-28.018-12.488-28.018-27.813v-195.93   C82.648,142.721,95.143,130.221,110.666,130.221L110.666,130.221z" fill="#EDEADF" fill-rule="evenodd"/><path clip-rule="evenodd" d="M256.004,289.863l136.461-96.348v188.266h9.07   c15.32,0,27.82-12.488,27.82-27.813V167.512v-9.473c0-12.902-8.875-23.785-20.973-27.014L256.004,238.666L103.811,131.025   c-12.098,3.023-21.162,14.111-21.162,27.014v9.27v186.66c0,15.324,12.494,27.813,28.018,27.813h8.867V193.516L256.004,289.863z" fill="#E53534" fill-rule="evenodd"/><polygon clip-rule="evenodd" fill="#ADADA4" fill-rule="evenodd" points="392.465,193.516 256.004,289.863 392.258,381.781    392.465,381.781  "/><path clip-rule="evenodd" d="M119.533,381.781l136.471-91.918   C201.373,321.918,170.129,342.273,119.533,381.781L119.533,381.781z" fill="#ADADA4" fill-rule="evenodd"/><path clip-rule="evenodd" d="M392.465,193.516v188.266h9.07c15.32,0,27.82-12.488,27.82-27.813   V167.512L392.465,193.516z" fill="#A52222" fill-rule="evenodd"/></svg>